<svg xmlns="http://www.w3.org/2000/svg" viewBox="0 0 1354.29 1524.25"><defs><style>.cls-1{fill:#e70d0f;}.cls-2{fill:#f89403;}.cls-3{fill:#15f566;}.cls-4{fill:#fff;}.cls-5{fill:#5bcdca;}</style></defs><g id="Layer_2" data-name="Layer 2"><g id="Layer_1-2" data-name="Layer 1"><path class="cls-1" d="M321.63,115.47l211,121.8v243.6l-211,121.8-211-121.8V237.27l211-121.8M321.63,0a63.32,63.32,0,0,0-31.71,8.5l-256,147.83A63.41,63.41,0,0,0,2.16,211.25V506.9a63.41,63.41,0,0,0,31.71,54.92L289.92,709.65a63.38,63.38,0,0,0,63.41,0L609.38,561.82a63.41,63.41,0,0,0,31.71-54.92V211.25a63.41,63.41,0,0,0-31.71-54.92L353.33,8.5A63.31,63.31,0,0,0,321.63,0Z"/><path class="cls-2" d="M1034.83,115.47l211,121.8v243.6l-211,121.8-211-121.8V237.27l211-121.8m0-115.47a63.32,63.32,0,0,0-31.71,8.5l-256,147.83a63.41,63.41,0,0,0-31.71,54.92V506.9a63.41,63.41,0,0,0,31.71,54.92l256,147.83a63.38,63.38,0,0,0,63.41,0l256-147.83a63.41,63.41,0,0,0,31.71-54.92V211.25a63.41,63.41,0,0,0-31.71-54.92L1066.53,8.5a63.29,63.29,0,0,0-31.7-8.5Z"/><path class="cls-2" d="M782.34,342.16H755.92a40.63,40.63,0,0,0-40.63,40.63V623.53a40.63,40.63,0,0,0,40.63,40.63h26.42A40.63,40.63,0,0,0,823,623.53V382.79a40.63,40.63,0,0,0-40.63-40.63Z"/><path class="cls-2" d="M768.33,592.79a10.67,10.67,0,0,0-5.66,1.62l-42.29,26.42a10.67,10.67,0,0,0-5,9.35l1.4,49.85a10.68,10.68,0,0,0,5.63,9.1L766,712.49a10.7,10.7,0,0,0,10.7-.36L819,685.71a10.66,10.66,0,0,0,5-9.35l-1.4-49.84a10.67,10.67,0,0,0-5.63-9.11l-43.56-23.35a10.62,10.62,0,0,0-5-1.27Z"/><path class="cls-3" d="M319.46,921.57l211,121.8V1287l-211,121.8L108.5,1287v-243.6l211-121.8m0-115.47a63.4,63.4,0,0,0-31.7,8.49l-256,147.83A63.43,63.43,0,0,0,0,1017.34V1313a63.42,63.42,0,0,0,31.71,54.92l256.05,147.83a63.38,63.38,0,0,0,63.41,0l256.05-147.83A63.42,63.42,0,0,0,638.93,1313V1017.34a63.43,63.43,0,0,0-31.71-54.92l-256-147.83a63.41,63.41,0,0,0-31.71-8.49Z"/><path class="cls-3" d="M593.27,1140.16H576.14a45.67,45.67,0,0,0-45.67,45.67V1455a45.67,45.67,0,0,0,45.67,45.67h17.13A45.67,45.67,0,0,0,638.94,1455V1185.83a45.67,45.67,0,0,0-45.67-45.67Z"/><polygon class="cls-4" points="584.68 1462.36 584.96 1462.18 584.97 1462.52 584.68 1462.69 584.68 1462.36"/><path class="cls-3" d="M584.31,1401.27a10.69,10.69,0,0,0-5.51,1.53l-43.29,26a10.66,10.66,0,0,0-5.2,9.3l.56,50.48a10.69,10.69,0,0,0,5.48,9.23l43.76,24.46a10.72,10.72,0,0,0,10.73-.16l43.3-26a10.72,10.72,0,0,0,5.2-9.3l-.56-50.49a10.72,10.72,0,0,0-5.49-9.22l-43.75-24.46a10.72,10.72,0,0,0-5.23-1.37Z"/><path class="cls-4" d="M1279.43,1521.66h40.51a8.8,8.8,0,0,0,7.74-4.62l20.76-38.46a8.83,8.83,0,0,0,0-8.35l-20.76-38.46a8.81,8.81,0,0,0-7.74-4.61h-40.51a8.81,8.81,0,0,0-7.74,4.61l-20.75,38.46a8.77,8.77,0,0,0,0,8.35l20.75,38.46A8.8,8.8,0,0,0,1279.43,1521.66Z"/><path class="cls-5" d="M1319.94,1427.16h-40.51a8.81,8.81,0,0,0-7.74,4.61l-20.75,38.46a8.77,8.77,0,0,0,0,8.35l20.75,38.46a8.8,8.8,0,0,0,7.74,4.62h40.51a8.8,8.8,0,0,0,7.74-4.62l20.76-38.46a8.83,8.83,0,0,0,0-8.35l-20.76-38.46a8.81,8.81,0,0,0-7.74-4.61Z"/><path class="cls-5" d="M1295.8,1427.16H1036.13a20.66,20.66,0,0,0-20.66,20.66V1501a20.66,20.66,0,0,0,20.66,20.67H1295.8a20.66,20.66,0,0,0,20.67-20.67v-53.17a20.66,20.66,0,0,0-20.67-20.66Z"/><path class="cls-5" d="M1030.62,921.73l209.67,121v242.11l-209.67,121L821,1284.89V1042.78l209.67-121m0-115.52A63,63,0,0,0,999,814.68L744,961.91a63.15,63.15,0,0,0-31.58,54.69v294.46a63.16,63.16,0,0,0,31.58,54.7L999,1513a63.17,63.17,0,0,0,63.16,0l255-147.23a63.16,63.16,0,0,0,31.58-54.7V1016.6a63.15,63.15,0,0,0-31.58-54.69l-255-147.23a63,63,0,0,0-31.58-8.47Z"/></g></g></svg>